<?xml version="1.0" encoding="UTF-8"?>
<svg id="Layer_2" data-name="Layer 2" xmlns="http://www.w3.org/2000/svg" viewBox="0 0 752.33 338.18">
  <g id="Layer_2-2" data-name="Layer 2">
    <polygon points="31.23 159.76 185.84 145.04 169.99 298.36 159.49 298.24 150.26 204.91 15.45 337.03 0 319.23 126.42 178.71 31.33 169.85 31.23 159.76" style="fill: #f85c14;"/>
    <path d="M304.2,161.95v1.13c-.02,3.95-3.04,7.25-6.97,7.61l-85.84,7.84c-1.64.15-2.44,2.08-1.38,3.34l55.07,65.77c2.53,3.03,2.36,7.48-.4,10.29l-.39.39c-2.73,2.79-7.14,3.08-10.21.66l-64.78-50.9c-.55-.43-.84-1.12-.77-1.81l6.42-62.1.68-6.61c.13-1.28-.94-2.36-2.22-2.24l-6.61.63-62.59,5.96c-.67.06-1.33-.21-1.76-.73l-53.16-63.9c-2.5-3.01-2.34-7.42.39-10.24h0c2.72-2.82,7.13-3.13,10.21-.73l67.14,52.22c1.27.98,3.12.19,3.28-1.4l8.67-84.77c.39-3.9,3.67-6.87,7.58-6.89h.95c3.94-.02,7.25,2.95,7.67,6.88l8.78,84.28c.17,1.6,2.02,2.38,3.29,1.4l67.35-52.74c1.4-1.09,3.07-1.63,4.72-1.63,1.99,0,3.96.77,5.45,2.28,2.76,2.79,2.97,7.23.48,10.26l-46.61,56.72-8.02,9.77h0c-1.04,1.26-.25,3.17,1.38,3.33l85.28,8.29c3.94.38,6.94,3.69,6.93,7.65Z" style="fill: #f85c14;"/>
    <g>
      <path d="M320.99,105.19h23.47c1.65,14.21,9.75,19.83,26.61,19.83,12.23,0,22.97-4.3,22.97-15.2,0-11.57-11.24-13.88-29.25-18.01-21.15-4.79-40.49-10.41-40.49-35.04,0-23.3,19.01-35.37,45.28-35.37s43.8,13.06,45.61,36.85h-22.97c-1.32-11.9-10.58-17.85-22.81-17.85-12.89,0-21.32,5.45-21.32,13.88,0,9.59,8.26,12.4,25.78,16.2,24.29,5.29,44.13,11.07,44.13,36.52,0,23.96-19.34,37.35-45.94,37.35-32.06,0-50.24-14.21-51.07-39.17Z" style="fill: #122738;"/>
      <path d="M430.56,56.93h21.65v10.58h.5c5.45-7.44,13.39-12.89,24.96-12.89,22.48,0,36.85,18.34,36.85,44.79s-14.87,44.79-36.69,44.79c-11.9,0-19.67-4.79-24.46-12.06h-.33v37.35h-22.48V56.93ZM491.71,100.07c0-16.03-5.62-27.27-19.5-27.27s-19.67,12.06-19.67,27.27,7.11,25.45,20.49,25.45c11.4,0,18.67-9.42,18.67-25.45Z" style="fill: #122738;"/>
      <path d="M575.67,132.29h-.33c-4.3,6.45-10.41,11.4-24.96,11.4-17.35,0-29.58-9.09-29.58-25.95,0-18.68,15.21-24.62,34.05-27.27,14.05-1.98,20.49-3.14,20.49-9.59s-4.79-10.08-14.21-10.08c-10.58,0-15.7,3.8-16.36,11.9h-20c.66-14.87,11.73-27.93,36.52-27.93s35.7,11.4,35.7,31.24v43.13c0,6.45.99,10.25,2.98,11.73v.83h-21.65c-1.32-1.65-2.15-5.62-2.64-9.42ZM575.83,111.8v-12.73c-3.97,2.31-10.08,3.64-15.7,4.96-11.73,2.64-17.52,5.29-17.52,13.22s5.29,10.74,13.22,10.74c12.89,0,20-7.93,20-16.2Z" style="fill: #122738;"/>
      <path d="M632.85,70.48h.5c5.12-9.59,10.91-14.54,20.82-14.54,2.48,0,3.97.17,5.29.66v19.67h-.5c-14.71-1.49-25.29,6.28-25.29,24.13v41.32h-22.48V56.93h21.65v13.55Z" style="fill: #122738;"/>
      <path d="M701.27,103.04l-9.75,10.08v28.59h-22.31V23.55h22.31v65.45l30.08-32.06h26.94l-31.24,32.23,35.04,52.56h-27.27l-23.8-38.67Z" style="fill: #122738;"/>
      <path d="M326.28,176.55h23.96v98.17h55.53v20h-79.49v-118.17Z" style="fill: #122738;"/>
      <path d="M468.41,285.29h-.33c-4.3,6.45-10.41,11.4-24.96,11.4-17.35,0-29.58-9.09-29.58-25.95,0-18.67,15.21-24.62,34.04-27.27,14.05-1.98,20.49-3.14,20.49-9.58s-4.79-10.08-14.21-10.08c-10.58,0-15.7,3.8-16.36,11.9h-20c.66-14.87,11.73-27.93,36.52-27.93s35.7,11.4,35.7,31.24v43.13c0,6.45.99,10.25,2.97,11.73v.83h-21.65c-1.32-1.65-2.15-5.62-2.64-9.42ZM468.57,264.8v-12.73c-3.97,2.31-10.08,3.64-15.7,4.96-11.73,2.64-17.52,5.29-17.52,13.22s5.29,10.74,13.22,10.74c12.89,0,20-7.93,20-16.2Z" style="fill: #122738;"/>
      <path d="M525.92,284.14h-.33v10.58h-21.65v-118.17h22.48v43.63h.5c4.63-7.11,11.9-12.56,23.63-12.56,21.32,0,36.52,18.34,36.52,44.79s-14.54,44.79-35.86,44.79c-11.9,0-20.33-5.12-25.29-13.06ZM564.26,252.41c0-15.7-6.28-26.61-18.84-26.61-14.21,0-19.5,11.4-19.5,27.1s7.77,25.45,20.33,25.45c11.57,0,18.01-9.59,18.01-25.95Z" style="fill: #122738;"/>
    </g>
  </g>
</svg>